<?xml version="1.0" encoding="UTF-8" standalone="no"?>
<!-- Created with Inkscape (http://www.inkscape.org/) -->

<svg
   width="200.65527mm"
   height="62.982185mm"
   viewBox="0 0 200.65527 62.982185"
   version="1.1"
   id="svg5"
   xml:space="preserve"
   xmlns:inkscape="http://www.inkscape.org/namespaces/inkscape"
   xmlns:sodipodi="http://sodipodi.sourceforge.net/DTD/sodipodi-0.dtd"
   xmlns="http://www.w3.org/2000/svg"
   xmlns:svg="http://www.w3.org/2000/svg"><sodipodi:namedview
     id="namedview7"
     pagecolor="#ffffff"
     bordercolor="#000000"
     borderopacity="0.25"
     inkscape:showpageshadow="2"
     inkscape:pageopacity="0.0"
     inkscape:pagecheckerboard="0"
     inkscape:deskcolor="#d1d1d1"
     inkscape:document-units="mm"
     showgrid="false" /><defs
     id="defs2" /><g
     inkscape:label="Layer 1"
     inkscape:groupmode="layer"
     id="layer1"
     transform="translate(-4.319398,-126.62403)"><g
       id="g461"
       transform="translate(2.5214907,31.649472)"><path
         style="fill:#cadda7;stroke-width:0.122576"
         d="m 166.79312,140.86923 c 0.006,-0.14279 0.0349,-0.17184 0.0741,-0.0741 0.0354,0.0885 0.0311,0.19421 -0.01,0.23494 -0.0407,0.0407 -0.0697,-0.0317 -0.0644,-0.16088 z M 14.072502,138.4892 c 0,-0.16854 0.02782,-0.23749 0.06183,-0.15322 0.034,0.0843 0.034,0.22217 0,0.30644 -0.034,0.0843 -0.06183,0.0153 -0.06183,-0.15322 z m 168.287828,-0.92953 c 0.006,-0.1428 0.0349,-0.17184 0.0741,-0.0741 0.0354,0.0885 0.0311,0.19421 -0.01,0.23494 -0.0407,0.0407 -0.0697,-0.0317 -0.0644,-0.16088 z"
         id="path471" /><path
         style="fill:#a5b9c6;stroke-width:0.122576"
         d="m 178.22508,126.04769 c 0,-0.53933 0.022,-0.74472 0.0479,-0.45642 0.0259,0.2883 0.0255,0.72958 -10e-4,0.98061 -0.0263,0.25103 -0.0475,0.0152 -0.0471,-0.52419 z m -0.0227,-2.02251 c 0,-0.16854 0.0278,-0.23749 0.0618,-0.15322 0.034,0.0843 0.034,0.22217 0,0.30644 -0.034,0.0843 -0.0618,0.0153 -0.0618,-0.15322 z m -93.018171,-3.43214 c 0,-0.3708 0.02298,-0.52248 0.05106,-0.33709 0.02809,0.1854 0.02809,0.48878 0,0.67417 -0.02808,0.1854 -0.05106,0.0337 -0.05106,-0.33708 z"
         id="path469" /><path
         style="fill:#89b530;stroke-width:0.122576"
         d="m 18.239002,157.35778 c -0.360756,-0.33646 -0.857191,-0.69582 -1.103188,-0.79858 -0.58048,-0.24248 -1.043281,-0.68769 -1.582334,-1.52217 -0.561413,-0.8691 -0.835345,-1.66217 -0.994969,-2.88055 -0.120129,-0.91693 -0.295004,-5.78503 -0.453513,-12.62474 -0.05709,-2.46365 -0.100139,-2.97653 -0.265117,-3.15883 -0.174469,-0.19278 -0.193537,-0.72465 -0.167008,-4.65854 0.02573,-3.81509 -0.178913,-12.4463 -0.298107,-12.57339 -0.04212,-0.0449 -0.754079,0.11302 -3.244065,0.71965 -0.8427131,0.20531 -1.8080029,0.42619 -2.1450882,0.49086 -0.3370853,0.0647 -0.8886795,0.17528 -1.2257648,0.24581 -0.7890887,0.1651 -1.3629473,0.0649 -1.4459358,-0.25243 -0.045842,-0.17531 -0.1679833,-0.24214 -0.4425241,-0.24214 -0.3491122,0 -0.379205,-0.0329 -0.379205,-0.4144 0,-0.37851 0.055742,-0.44148 0.6435265,-0.72696 0.5815033,-0.28243 1.3325819,-0.54136 2.1757326,-0.75008 0.1685426,-0.0417 0.609818,-0.16305 0.9806118,-0.26961 0.3707939,-0.10656 0.8948083,-0.23644 1.1644766,-0.28863 0.7733954,-0.14966 2.6728774,-0.7384 2.8460524,-0.88212 0.08639,-0.0717 0.157071,-0.20634 0.157071,-0.29921 0,-0.30852 -0.295188,-0.24946 -3.4321411,0.68657 -0.7078792,0.21123 -1.480111,0.42949 -1.7160707,0.48503 -0.2359598,0.0555 -0.6220757,0.20322 -0.8580354,0.32818 -0.4365409,0.23118 -1.0120204,0.46428 -1.6307879,0.66056 -0.2724669,0.0864 -0.3926082,0.0602 -0.579458,-0.12669 -0.3326855,-0.33269 -0.1836784,-0.57864 0.4762754,-0.78616 0.9636205,-0.303 4.3620711,-1.48131 4.4919413,-1.55745 0.067417,-0.0395 0.33156,-0.13924 0.5869842,-0.2216 0.3596822,-0.11598 0.4488112,-0.19889 0.3952442,-0.36766 -0.10276,-0.32377 0.855461,-0.46715 1.177041,-0.17613 0.183915,0.16644 0.261037,0.1761 0.411188,0.0515 0.101648,-0.0844 0.155958,-0.20008 0.120688,-0.25715 -0.03527,-0.0571 0.199766,-0.18831 0.5223,-0.29165 l 0.586426,-0.1879 -0.612883,0.0626 c -1.668371,0.17037 -2.221842,0.25466 -2.390241,0.36404 -0.1011258,0.0657 -0.2114447,0.12488 -0.2451532,0.13157 -0.033709,0.007 -0.1991868,0.0691 -0.3677295,0.13871 -0.4665268,0.1927 -2.4270263,0.83442 -4.4740415,1.46448 -1.011256,0.31126 -1.9039933,0.61755 -1.9838606,0.68065 -0.079867,0.0631 -0.3280848,0.0972 -0.5515942,0.0757 -0.342184,-0.0328 -0.4003227,-0.0826 -0.3680317,-0.3148 0.021092,-0.15169 -0.020278,-0.2758 -0.091932,-0.2758 -0.2039171,0 -0.1528121,-1.01958 0.07432,-1.48273 0.3514706,-0.71669 1.1598422,-1.42459 2.2965905,-2.01115 1.3476952,-0.69541 2.9650888,-1.11737 4.9146855,-1.2822 0.8090047,-0.0684 1.7742947,-0.17393 2.1450887,-0.23453 0.370794,-0.0606 1.15452,-0.17688 1.741613,-0.2584 0.587093,-0.0815 1.129301,-0.22276 1.204906,-0.31386 0.08886,-0.10707 0.176669,-1.45738 0.24833,-3.81858 0.06098,-2.00912 0.140124,-3.79084 0.175883,-3.95938 0.10746,-0.5065 0.557648,-3.55038 0.670773,-4.535334 0.169302,-1.474083 0.490188,-3.172938 0.696897,-3.689554 0.187758,-0.469253 0.202917,-0.478046 0.824146,-0.478046 0.910016,0 2.277984,0.405934 2.547157,0.75585 0.187839,0.244184 0.220718,0.546179 0.224648,2.063409 0.0025,0.977547 0.05335,1.854346 0.11293,1.948441 0.121389,0.191709 0.479009,0.103264 0.556607,-0.137658 0.505533,-1.569532 0.802229,-2.071709 0.802229,-1.357829 0,0.189923 0.137343,0.473735 0.323058,0.667579 l 0.323059,0.337201 -0.144067,1.446861 c -0.07924,0.79578 -0.171848,1.69509 -0.205799,1.99846 -0.0704,0.62908 0.07034,0.93174 0.378322,0.81356 0.17156,-0.0658 0.193799,-0.17336 0.124114,-0.6001 -0.04669,-0.28594 -0.07695,-0.98875 -0.06724,-1.5618 0.02474,-1.460069 0.526143,-2.478045 0.950914,-1.930577 0.258848,0.333618 0.562067,1.552077 0.617697,2.482177 0.03226,0.53933 0.104295,1.03802 0.160081,1.10819 0.0582,0.0732 -0.02959,0.35824 -0.205959,0.66874 -0.257728,0.45374 -0.284101,0.58468 -0.16325,0.81049 0.160432,0.29977 0.120017,1.67393 -0.134085,4.55907 -0.100593,1.14217 -0.112635,1.79489 -0.03455,1.87297 0.07808,0.0781 0.479527,0.077 1.151937,-0.003 1.182378,-0.14072 3.66643,-0.455 5.015821,-0.63459 0.505628,-0.0673 1.608817,-0.19742 2.45153,-0.28917 0.842713,-0.0918 2.099385,-0.23565 2.792602,-0.31978 1.484843,-0.1802 1.587733,-0.13483 1.366773,0.60267 -0.147018,0.4907 -0.164594,0.50296 -0.989974,0.69069 -0.462165,0.10512 -1.500401,0.27677 -2.307193,0.38144 -1.612985,0.20927 -3.652066,0.59456 -3.769825,0.71232 -0.119651,0.11965 0.439782,0.0762 1.497987,-0.11633 0.539337,-0.0981 1.421888,-0.23785 1.961224,-0.31048 0.539337,-0.0726 1.690034,-0.26521 2.557106,-0.42796 0.867072,-0.16276 1.922546,-0.29592 2.3455,-0.29592 0.682084,0 0.791382,0.0341 0.966968,0.30213 0.26061,0.39774 0.250365,0.74866 -0.03004,1.02907 -0.303353,0.30335 -1.622894,0.68532 -3.204136,0.92751 -0.707879,0.10842 -1.56285,0.25154 -1.899935,0.31805 -0.337085,0.0665 -1.164477,0.20454 -1.838647,0.30673 -0.674171,0.10219 -1.7222,0.26997 -2.328953,0.37285 -0.606754,0.10288 -1.406565,0.23822 -1.777359,0.30076 -0.370794,0.0625 -1.060287,0.14759 -1.532206,0.18902 -0.47192,0.0414 -1.023514,0.12277 -1.225765,0.18075 -0.202251,0.058 -0.615947,0.11908 -0.919324,0.13578 -0.303377,0.0167 -0.648123,0.088 -0.766103,0.15842 -0.202391,0.12085 -0.287981,0.44509 -0.153095,0.57997 0.07139,0.0714 1.343697,-0.0863 2.144963,-0.26589 0.501883,-0.11247 1.782577,-0.32438 4.841771,-0.80114 0.606754,-0.0946 2.620072,-0.36643 4.474042,-0.60414 1.853969,-0.23772 3.610415,-0.48968 3.903215,-0.55992 0.292798,-0.0702 0.637545,-0.0943 0.766103,-0.0535 0.533667,0.16938 0.04813,0.91571 -0.595733,0.91571 -0.156541,0 -0.626912,0.078 -1.04527,0.17341 -2.922529,0.6663 -5.346557,1.15943 -7.37978,1.50129 -2.210262,0.37164 -3.802488,0.67275 -6.453484,1.22047 l -1.060119,0.21903 -0.05963,0.8025 c -0.0328,0.44137 -0.147476,1.85052 -0.254844,3.13144 -0.209112,2.49475 -0.380094,5.66673 -0.56493,10.48029 -0.122943,3.20175 -0.341227,5.74985 -0.508502,5.93593 -0.06081,0.0676 -0.202349,0.0228 -0.350121,-0.11093 -0.235412,-0.21304 -0.248018,-0.3687 -0.24742,-3.05538 3.68e-4,-1.557 0.05758,-3.8741 0.127193,-5.14912 0.08739,-1.60078 0.0872,-2.35757 -6.13e-4,-2.4454 -0.268738,-0.26874 -0.43429,0.18834 -0.517648,1.42919 -0.08963,1.33424 -0.251209,2.36216 -0.393701,2.50466 -0.242246,0.24224 -0.326428,-0.37483 -0.252198,-1.84869 0.187765,-3.7281 0.260981,-6.89057 0.162038,-6.99896 -0.05846,-0.0641 -0.109388,-0.0916 -0.11317,-0.0613 -0.04442,0.3564 -0.26212,6.42158 -0.353953,9.86128 -0.0648,2.42701 -0.182131,5.81932 -0.260744,7.53845 -0.153877,3.36503 -0.09588,7.21121 0.17929,11.88992 0.138417,2.35351 0.219407,3.02632 0.44265,3.67729 0.294915,0.85996 0.447722,2.11467 0.319674,2.62485 -0.117286,0.46731 -0.416956,0.38874 -1.159824,-0.3041 z m 2.006842,-31.34073 c 0.151866,-0.36157 0.227217,-4.07567 0.08269,-4.07567 -0.17388,0 -0.416283,0.77285 -0.373726,1.19153 0.01905,0.18737 -0.01022,0.84551 -0.06503,1.46252 -0.0969,1.09077 -0.04198,1.63613 0.164768,1.63613 0.05566,0 0.141746,-0.0965 0.191302,-0.21451 z m 0.22217,-7.19241 c 0.03691,-0.0962 -0.01234,-0.24085 -0.109463,-0.32145 -0.146086,-0.12124 -0.176578,-0.091 -0.176578,0.17491 0,0.34451 0.17556,0.43445 0.286041,0.14654 z m 0.627639,-7.08775 c 0.04534,-0.75844 0.13411,-1.81881 0.197262,-2.35638 0.149319,-1.27104 0.142195,-3.05174 -0.01069,-2.67165 -0.191504,0.4761 -0.660347,6.09053 -0.527353,6.31508 0.173782,0.29342 0.267441,-0.0603 0.340779,-1.28705 z m 4.602261,0.88868 c 0,-0.0674 -0.110318,-0.12258 -0.245153,-0.12258 -0.134834,0 -0.245153,0.0552 -0.245153,0.12258 0,0.0674 0.110319,0.12257 0.245153,0.12257 0.134835,0 0.245153,-0.0552 0.245153,-0.12257 z m 1.532206,-0.3116 c 0.302143,-0.1304 0.321802,-0.16049 0.110224,-0.16871 -0.355791,-0.0138 -1.029547,0.23354 -1.029547,0.37798 0,0.12546 0.304232,0.0562 0.919323,-0.20927 z m -5.600474,-7.00287 c -0.05004,-0.59211 -0.344485,-0.70498 -0.344485,-0.13205 0,0.23034 0.03677,0.45557 0.08172,0.50052 0.194692,0.19469 0.298104,0.0497 0.262767,-0.36847 z m 29.073871,21.10432 V 97.671238 h 0.367729 0.367729 v 28.744182 28.74418 h -0.367729 -0.367729 z m 92.668693,16.42127 c -0.54456,-0.24559 -0.98149,-0.65413 -0.98149,-0.91771 0,-0.45771 0.74034,-0.79907 0.94394,-0.43525 0.3073,0.54911 1.52114,0.72333 2.18425,0.3135 0.4046,-0.25006 0.58613,-0.74973 0.45481,-1.25191 -0.0621,-0.23763 -0.9679,-0.83035 -1.2689,-0.83035 -0.32474,0 -1.73446,-0.79237 -1.96782,-1.10606 -0.51096,-0.68687 -0.43443,-1.83238 0.16828,-2.51883 0.54845,-0.62465 0.9444,-0.78826 1.90024,-0.78517 1.25942,0.004 2.24171,0.52558 2.06121,1.09433 -0.11896,0.3748 -0.57121,0.4306 -1.1174,0.13787 -0.28694,-0.15379 -0.70174,-0.25428 -1.04958,-0.25428 -0.4724,0 -0.61965,0.0566 -0.82416,0.31655 -0.57542,0.73153 -0.41797,1.38775 0.42511,1.77182 0.29046,0.13232 0.58745,0.24058 0.65999,0.24058 0.0725,0 0.47982,0.16965 0.90509,0.37701 0.96145,0.46878 1.18285,0.81119 1.18285,1.82937 0,0.85346 -0.1677,1.21316 -0.82487,1.76932 -0.38124,0.32265 -0.52791,0.36394 -1.42421,0.401 -0.72008,0.0298 -1.11879,-0.0126 -1.42734,-0.15179 z m 17.87662,0.0685 c -1.7651,-0.53336 -2.81223,-2.18232 -2.64006,-4.15738 0.12212,-1.4008 0.90624,-2.56577 2.11041,-3.13543 0.5402,-0.25555 0.8379,-0.3102 1.68977,-0.3102 0.87871,0 1.11753,0.0466 1.58968,0.31054 0.30559,0.1708 0.64782,0.45126 0.76051,0.62325 0.19206,0.29311 0.19158,0.32741 -0.008,0.54749 -0.25719,0.28418 -0.69921,0.30484 -0.91665,0.0428 -0.2912,-0.35088 -0.83145,-0.54351 -1.5243,-0.54351 -1.57815,0 -2.65384,1.19389 -2.65082,2.94211 0.002,0.92476 0.37302,1.71417 1.07868,2.29253 0.56241,0.46095 0.57741,0.46516 1.65575,0.46516 0.61187,0 1.12656,-0.0555 1.17587,-0.12687 0.0482,-0.0698 0.27643,-0.27168 0.50716,-0.44866 0.39023,-0.29934 0.43937,-0.30874 0.70481,-0.13482 0.15692,0.10283 0.28532,0.28078 0.28532,0.39546 0,0.28182 -0.73274,0.91231 -1.34494,1.15727 -0.52624,0.21056 -1.89531,0.25495 -2.4736,0.0802 z m 14.91011,-0.10955 c -1.16679,-0.53005 -1.53348,-1.64708 -1.51429,-4.61292 0.0153,-2.36034 0.0683,-2.68235 0.45089,-2.73673 0.59674,-0.0848 0.63599,0.0761 0.63599,2.60733 0,3.44237 0.2124,3.92803 1.71824,3.92883 0.71314,3.7e-4 0.88129,-0.0426 1.14854,-0.29338 0.48245,-0.45276 0.5533,-0.86644 0.60207,-3.51558 0.0249,-1.35359 0.0853,-2.52573 0.13411,-2.60475 0.11553,-0.18693 0.59703,-0.18484 0.78528,0.003 0.19076,0.19076 0.2014,4.17198 0.0139,5.18652 -0.17231,0.93214 -0.71341,1.72679 -1.38279,2.03075 -0.67184,0.30508 -1.92773,0.30824 -2.59189,0.007 z m 14.92892,0.005 c -0.28452,-0.11559 -0.58514,-0.27798 -0.66804,-0.36088 -0.0829,-0.0829 -0.20137,-0.15072 -0.26328,-0.15072 -0.19656,0 -0.79693,-0.77276 -1.14281,-1.47092 -0.2712,-0.54742 -0.33554,-0.84901 -0.34218,-1.60414 -0.005,-0.51148 0.0565,-1.06307 0.13548,-1.22576 0.079,-0.16269 0.23949,-0.51644 0.35659,-0.7861 0.63515,-1.46285 2.8848,-2.29787 4.60844,-1.71057 0.64153,0.21859 1.24625,0.78765 1.18346,1.11367 -0.0623,0.32323 -0.69505,0.52637 -0.88009,0.28253 -0.22651,-0.29852 -0.99613,-0.60496 -1.51932,-0.60496 -1.30459,0 -2.32144,0.7294 -2.66516,1.91174 -0.36139,1.24315 -0.11121,2.29928 0.74355,3.13883 0.59541,0.58483 1.09659,0.75058 2.08016,0.68795 0.65209,-0.0415 0.85833,-0.11351 1.26773,-0.44253 0.5305,-0.42631 0.87985,-0.49388 1.11134,-0.21495 0.31491,0.37945 -0.26155,1.04245 -1.27429,1.4656 -0.62375,0.26063 -2.05632,0.24553 -2.73158,-0.0288 z m -79.30338,-0.0519 c -0.0545,-0.0843 -0.11263,-1.71297 -0.12908,-3.61932 l -0.0299,-3.4661 0.33635,-0.12806 c 0.55074,-0.20968 2.90507,-0.042 3.50788,0.24978 0.55322,0.26781 0.93479,0.92364 0.93479,1.6067 0,0.41928 -0.40237,1.28779 -0.64025,1.38195 -0.10287,0.0407 -0.0249,0.16984 0.22768,0.37681 1.25557,1.02904 0.81685,3.0141 -0.78693,3.56056 -0.71276,0.24286 -3.2695,0.27102 -3.42053,0.0377 z m 3.15312,-1.01333 c 0.72292,-0.37384 0.90051,-1.29345 0.36152,-1.87199 -0.25511,-0.27383 -1.17063,-0.44273 -2.02031,-0.37272 l -0.49031,0.0404 -0.0351,1.19512 -0.0351,1.19513 h 0.92985 c 0.5914,0 1.06072,-0.0677 1.28941,-0.18594 z m -0.0296,-3.4527 c 0.37672,-0.28 0.50059,-0.89618 0.26766,-1.33142 -0.19233,-0.35937 -0.88651,-0.57159 -1.71301,-0.52368 l -0.67418,0.0391 -0.0354,1.0021 c -0.0339,0.95829 -0.0232,1.00473 0.24515,1.06215 0.59371,0.12704 1.57687,-7.4e-4 1.90983,-0.24823 z m 3.03228,4.50248 c -0.0897,-0.14511 -0.01,-0.49341 0.24057,-1.04771 0.0913,-0.20225 0.30339,-0.67111 0.47128,-1.0419 0.84287,-1.86161 1.06192,-2.37233 1.06192,-2.47597 0,-0.1047 0.85694,-2.02113 1.08163,-2.4189 0.16346,-0.28939 0.45599,-0.41672 0.76868,-0.3346 0.21649,0.0569 0.39477,0.29768 0.67129,0.90673 0.8803,1.93896 1.68939,3.82343 1.95022,4.5423 0.15389,0.42413 0.37316,0.87431 0.48728,1.00041 0.12135,0.13409 0.19095,0.37371 0.16766,0.57719 -0.032,0.27934 -0.10843,0.35578 -0.38776,0.38776 -0.35678,0.0408 -0.81656,-0.25776 -0.81656,-0.5303 0,-0.13255 -0.23225,-0.69518 -0.48061,-1.16431 -0.0776,-0.14656 -0.41803,-0.18947 -1.67766,-0.21149 -0.86917,-0.0152 -1.63547,0.0124 -1.70289,0.0613 -0.0674,0.0489 -0.31563,0.47502 -0.55159,0.94694 -0.38205,0.7641 -0.47137,0.86215 -0.81589,0.89559 -0.21278,0.0207 -0.42318,-0.0212 -0.46757,-0.093 z m 4.31723,-2.81147 c 0.20008,-0.0178 0.19527,-0.60426 -0.008,-0.99421 -0.0879,-0.16854 -0.26419,-0.60982 -0.39171,-0.98061 -0.45092,-1.31118 -0.46357,-1.29807 -1.73592,1.79893 -0.0861,0.20968 0.86879,0.28832 2.13577,0.17589 z m 4.22276,2.78115 c -0.10745,-0.10745 -0.14709,-1.07807 -0.14709,-3.601 0,-2.9543 0.0272,-3.47648 0.18799,-3.60993 0.14098,-0.117 0.57117,-0.13791 1.72041,-0.0836 1.69684,0.0802 2.21818,0.27316 2.5686,0.95082 0.25371,0.4906 0.23594,1.7632 -0.0309,2.21497 -0.33065,0.55976 -1.15015,0.89497 -2.36227,0.96627 l -1.0419,0.0613 0.0298,0.55159 c 0.0164,0.30338 -0.003,1.03424 -0.0437,1.62414 -0.0729,1.06474 -0.0758,1.07255 -0.40362,1.07255 -0.18161,0 -0.39639,-0.0662 -0.47729,-0.14709 z m 2.58103,-4.27233 c 0.85034,-0.23615 1.19247,-0.93976 0.75836,-1.55956 -0.10646,-0.15199 -0.32003,-0.27242 -0.48308,-0.27242 -0.16073,0 -0.32635,-0.0552 -0.36801,-0.12258 -0.0417,-0.0674 -0.39786,-0.12258 -0.79154,-0.12258 h -0.71578 l -0.0852,0.84803 c -0.12188,1.2136 -0.0524,1.3585 0.65078,1.35767 0.31569,-3.7e-4 0.78118,-0.0582 1.03444,-0.12856 z m 5.49275,4.18967 c -0.0825,-0.1542 -0.13083,-1.35607 -0.13083,-3.25562 v -3.01119 l -1.01125,-0.002 c -1.06444,-0.002 -1.22526,-0.0491 -1.35344,-0.3965 -0.20642,-0.55948 -0.0994,-0.58235 2.71489,-0.58036 1.45911,9.8e-4 2.72629,0.0484 2.81597,0.10523 0.0926,0.0587 0.14556,0.25648 0.12257,0.45779 l -0.0405,0.35443 -1.07254,0.0354 c -0.5899,0.0195 -1.08217,0.0471 -1.09394,0.0613 -0.0118,0.0142 -0.0531,1.46002 -0.0919,3.21286 l -0.0705,3.18699 -0.32884,0.038 c -0.22874,0.0264 -0.36867,-0.0364 -0.45966,-0.20645 z m 4.85976,0.15384 c -0.0481,-0.0481 -0.0875,-1.69964 -0.0875,-3.66999 0,-3.15366 0.0232,-3.59137 0.19389,-3.65687 0.40104,-0.15389 0.67121,-0.0718 0.78976,0.24002 0.13424,0.35308 0.14352,6.31309 0.0106,6.79502 -0.0626,0.2268 -0.18,0.31591 -0.45185,0.34289 -0.20203,0.02 -0.4067,-0.003 -0.45484,-0.0511 z m 11.27123,-0.006 c -0.045,-0.045 -0.0817,-1.5046 -0.0817,-3.24368 v -3.16196 l -1.13383,-0.0352 -1.13384,-0.0352 -0.0381,-0.39417 c -0.0315,-0.32607 0.0111,-0.40653 0.24688,-0.4657 0.15675,-0.0393 1.40905,-0.055 2.7829,-0.0349 2.22154,0.0326 2.51287,0.0604 2.63303,0.25119 0.0983,0.15611 0.0984,0.27291 0,0.42902 -0.10809,0.17187 -0.3431,0.22151 -1.18236,0.24975 -1.01873,0.0343 -1.04968,0.0441 -1.12895,0.35997 -0.0448,0.17861 -0.0677,1.58739 -0.051,3.13062 0.0254,2.32678 0,2.82486 -0.14513,2.91706 -0.20664,0.13076 -0.65139,0.15 -0.76816,0.0332 z m 16.30267,0 c -0.045,-0.045 -0.0817,-1.70109 -0.0817,-3.68033 v -3.59861 l 0.32158,-0.12226 c 0.53192,-0.20224 0.65064,0.10225 0.65513,1.68033 l 0.004,1.36814 1.37898,0.0434 c 0.75844,0.0238 1.54447,0.0128 1.74672,-0.0246 l 0.36773,-0.068 0.0345,-1.3624 c 0.0375,-1.479 0.14218,-1.72099 0.68546,-1.58464 0.41834,0.105 0.46154,0.48593 0.4369,3.85225 -0.0261,3.56999 -0.0273,3.57846 -0.48524,3.57846 -0.19293,0 -0.39539,-0.069 -0.44993,-0.15322 -0.0545,-0.0843 -0.12675,-0.84272 -0.16045,-1.68543 l -0.0613,-1.53221 h -1.71607 -1.71607 l -0.0613,1.53221 c -0.0337,0.84271 -0.10592,1.60115 -0.16046,1.68543 -0.10479,0.1619 -0.60008,0.20986 -0.73843,0.0715 z m 15.54382,-0.17278 c -0.0444,-0.13998 -0.0827,-1.77344 -0.0849,-3.62992 -0.003,-2.73014 0.0281,-3.39752 0.16445,-3.491 0.093,-0.0638 0.85526,-0.0945 1.7011,-0.0685 1.34672,0.0414 1.59542,0.0831 2.05128,0.344 0.58393,0.33422 0.89024,0.98623 0.89024,1.89498 0,0.42515 -0.0853,0.60947 -0.50073,1.08136 -0.3358,0.38149 -0.59822,0.56885 -0.79675,0.56885 -0.1628,0 -0.29602,0.0554 -0.29602,0.12302 0,0.15911 0.35355,0.81424 0.70482,1.30604 0.15169,0.21238 0.27579,0.42268 0.27579,0.46733 0,0.0447 0.14062,0.26555 0.31249,0.49087 0.17186,0.22533 0.32355,0.5664 0.33708,0.75793 0.0211,0.29857 -0.025,0.35392 -0.32332,0.38807 -0.44834,0.0513 -0.7255,-0.20491 -1.26488,-1.1694 -0.23627,-0.4225 -0.47603,-0.79689 -0.5328,-0.83197 -0.0567,-0.0351 -0.13753,-0.22011 -0.1795,-0.41118 -0.14208,-0.64687 -1.27267,-1.17414 -1.46165,-0.68167 -0.0409,0.10664 -0.0744,0.76404 -0.0744,1.46089 0,0.69686 -0.0335,1.35426 -0.0744,1.4609 -0.11413,0.29741 -0.74865,0.25206 -0.84788,-0.0606 z m 2.97129,-4.25019 c 0.56791,-0.26265 0.7621,-0.48864 0.76364,-0.88868 0.003,-0.69035 -0.72967,-1.10319 -1.95686,-1.10319 h -0.70113 l -0.076,0.45967 c -0.10088,0.61037 -0.0991,1.5628 0.003,1.66499 0.16849,0.1685 1.51187,0.0778 1.96728,-0.13279 z m 11.51613,4.42297 c -0.045,-0.045 -0.0817,-1.69601 -0.0817,-3.66903 0,-3.47967 0.007,-3.58966 0.24515,-3.66513 0.13484,-0.0428 0.35547,-0.0428 0.49031,0 0.22071,0.0701 0.24515,0.18546 0.24515,1.15742 0,1.33103 0.0893,1.80912 0.35024,1.87429 0.11075,0.0277 0.90464,0.0259 1.7642,-0.004 l 1.56286,-0.0542 v -1.443 c 0,-1.52798 0.025,-1.59182 0.6229,-1.59182 0.22665,0 0.23513,0.13485 0.23513,3.73858 v 3.73859 l -0.2758,-0.002 c -0.53367,-0.004 -0.57293,-0.1184 -0.60903,-1.78033 l -0.0345,-1.58865 -1.61191,-0.0341 c -2.08527,-0.0441 -2.02481,-0.0971 -1.97786,1.7327 0.0193,0.75121 -0.01,1.43477 -0.0641,1.51905 -0.10403,0.16074 -0.72057,0.21194 -0.86101,0.0715 z"
         id="path467" /><path
         style="fill:#35687c;stroke-width:0.122576"
         d="m 201.22744,120.71562 c 0,-0.0674 0.0584,-0.12258 0.1298,-0.12258 0.0714,0 0.0957,0.0552 0.0541,0.12258 -0.0417,0.0674 -0.10008,0.12257 -0.12981,0.12257 -0.0297,0 -0.054,-0.0552 -0.054,-0.12257 z"
         id="path465" /><path
         style="fill:#2b6280;stroke-width:0.122576"
         d="m 4.4267364,150.59518 c -0.032419,-0.0851 -0.044746,-6.55326 -0.027393,-14.37364 l 0.031551,-14.21887 1.1332824,-0.0352 1.1332823,-0.0352 0.031194,13.2122 0.031194,13.21221 3.1157292,0.0328 c 2.1010427,0.0221 3.1703897,0.0782 3.2835727,0.17209 0.122675,0.10181 0.158346,0.40637 0.132548,1.13169 l -0.0353,0.99238 -4.3853612,0.0322 c -3.4426222,0.0253 -4.398032,-0.001 -4.4443043,-0.12258 z m 15.5730496,-0.35057 c -0.04413,-0.29681 -0.06256,-0.81546 -0.04096,-1.15254 l 0.03928,-0.61288 1.777359,-0.0812 c 4.733244,-0.21621 8.38735,-1.5948 10.86193,-4.09787 1.025636,-1.03745 1.617012,-1.9637 2.109768,-3.30448 0.526439,-1.43244 0.673076,-2.46408 0.60977,-4.28996 -0.04934,-1.42316 -0.101319,-1.72373 -0.50256,-2.90622 -1.273153,-3.75208 -4.315109,-6.26255 -7.953824,-6.56414 l -1.018772,-0.0844 -0.03601,-0.96159 c -0.03966,-1.05916 0.03913,-1.23928 0.590349,-1.34953 0.200737,-0.0401 0.61017,-0.18469 0.90985,-0.32121 0.29968,-0.13652 0.57778,-0.24822 0.618001,-0.24822 0.04022,0 0.49257,-0.24553 1.005218,-0.54562 2.435939,-1.42594 3.826987,-3.32403 4.277896,-5.83719 0.114037,-0.6356 0.25577,-1.21761 0.31496,-1.29335 0.05919,-0.0757 0.396243,-0.1742 0.749007,-0.21879 0.352763,-0.0446 0.820656,-0.11286 1.039761,-0.15172 l 0.398374,-0.0707 -0.0026,0.71846 c -0.003,0.82351 -0.348697,2.49823 -0.713312,3.45602 -0.468275,1.2301 -1.252259,2.38132 -2.397332,3.52031 -0.613576,0.61032 -1.350019,1.24102 -1.636542,1.40156 -0.286522,0.16054 -0.52095,0.32746 -0.52095,0.37094 0,0.0435 0.288101,0.21259 0.640224,0.3758 0.352125,0.16322 1.063766,0.60967 1.581427,0.99211 2.520888,1.86243 4.07061,4.32782 4.832447,7.68774 0.298222,1.31525 0.195975,4.59997 -0.183546,5.89647 -1.202053,4.1064 -4.040254,7.07328 -8.464046,8.84777 -0.505628,0.20282 -1.746715,0.55808 -2.757971,0.78946 -1.554397,0.35565 -2.16394,0.43259 -3.942776,0.49766 l -2.104128,0.077 -0.08024,-0.53965 z m 80.944204,-14.57545 c -0.77505,-0.19481 -1.850033,-0.7259 -2.527964,-1.24892 -0.951495,-0.73407 -0.988378,-0.85456 -0.459264,-1.50028 0.619084,-0.75551 0.751929,-0.77606 1.339199,-0.20716 1.165189,1.12874 2.780029,1.61682 4.539609,1.37208 2.22484,-0.30944 3.25313,-1.73805 3.25313,-4.51958 v -1.15009 l -0.59568,0.53231 c -0.33373,0.29823 -0.94012,0.66707 -1.37898,0.83875 -0.66794,0.26131 -0.98191,0.30624 -2.13165,0.30503 -1.2572,-10e-4 -1.41322,-0.0293 -2.30807,-0.41387 -2.799754,-1.20325 -4.14679,-4.27732 -3.147287,-7.18242 0.366785,-1.06608 0.770545,-1.67902 1.601162,-2.43068 2.070655,-1.87384 5.420925,-1.90355 7.414685,-0.0658 l 0.53301,0.4913 0.037,-0.71452 0.0371,-0.71452 h 0.85803 0.85804 l 0.0369,5.39337 c 0.0428,6.25689 -0.0313,7.23331 -0.64386,8.48565 -0.53412,1.09194 -1.40291,1.90809 -2.55608,2.40122 -0.82623,0.35332 -0.99048,0.37915 -2.59806,0.40854 -0.94384,0.0173 -1.91627,-0.0189 -2.16097,-0.0804 z m 4.00725,-7.60148 c 0.81678,-0.3934 1.35489,-0.91336 1.79091,-1.73053 0.24894,-0.46654 0.28526,-0.70629 0.28526,-1.88295 0,-1.25008 -0.0264,-1.40035 -0.36159,-2.06198 -0.42495,-0.83866 -0.97163,-1.35391 -1.87562,-1.76778 -0.57477,-0.26313 -0.79295,-0.29465 -1.78296,-0.25754 -1.05523,0.0396 -1.17552,0.0718 -1.8635,0.50019 -1.774568,1.1049 -2.430749,3.15067 -1.647747,5.13717 0.866267,2.19773 3.280457,3.11089 5.455247,2.06342 z m -24.311128,2.32924 c -0.874543,-0.12751 -1.904462,-0.65219 -2.356874,-1.20067 -0.204997,-0.24853 -0.494599,-0.75525 -0.643563,-1.12605 -0.260681,-0.64887 -0.270936,-0.83054 -0.273309,-4.84177 l -0.0025,-4.1676 0.823672,-0.0362 c 0.772557,-0.0339 0.827605,-0.0187 0.88706,0.24516 0.03486,0.15472 0.07791,1.93609 0.09565,3.9586 0.0316,3.60137 0.03825,3.68853 0.322266,4.22121 0.348545,0.65371 0.455275,0.7667 1.003046,1.0619 0.621817,0.3351 2.094916,0.31633 2.751977,-0.0351 1.036314,-0.55422 1.712025,-1.60981 1.835559,-2.86749 0.0359,-0.36547 0.08907,-1.98831 0.118163,-3.60632 0.02909,-1.61801 0.05647,-2.95563 0.06084,-2.97248 0.02081,-0.0803 1.594404,-0.0186 1.645753,0.0645 0.03233,0.0523 0.07274,2.54828 0.08979,5.54659 l 0.03101,5.45148 h -0.847507 -0.847509 l -0.1045,-0.65651 -0.1045,-0.65651 -0.386958,0.3675 c -0.623493,0.59215 -1.666909,1.1049 -2.532046,1.2443 -0.438211,0.0706 -0.824327,0.12192 -0.858036,0.11402 -0.03371,-0.008 -0.352095,-0.0568 -0.707525,-0.1086 z m 35.115368,-0.0574 c -1.80256,-0.30964 -3.25336,-1.45468 -4.1178,-3.24994 -0.43907,-0.91184 -0.44266,-0.93229 -0.44103,-2.51282 10e-4,-1.45921 0.0298,-1.65951 0.33553,-2.3769 1.34923,-3.16566 4.87358,-4.46031 7.90816,-2.90501 1.57814,0.80884 2.72527,2.88265 2.72527,4.92682 0,0.57802 -0.046,0.77554 -0.1939,0.83229 -0.10663,0.0409 -2.14753,0.0744 -4.53532,0.0744 h -4.34144 v 0.37122 c 0,0.54745 0.64119,1.72147 1.23141,2.25469 0.81358,0.73502 1.4843,0.9865 2.62974,0.98599 1.19053,-4.9e-4 2.03053,-0.35525 2.92158,-1.23371 0.63711,-0.62811 0.58398,-0.63255 1.48482,0.12416 0.33739,0.28342 0.35011,0.32459 0.19169,0.6206 -0.1877,0.35072 -0.88638,0.95357 -1.68956,1.45781 -1.00245,0.62935 -2.64676,0.88161 -4.10915,0.6304 z m 4.4489,-7.1076 c 0,-0.39695 -0.55226,-1.63751 -0.89494,-2.01035 -0.82048,-0.89268 -2.86635,-1.17781 -4.07598,-0.56807 -1.14724,0.57829 -2.12771,1.7744 -2.13582,2.60557 l -0.003,0.27579 h 3.55471 3.55472 z m 24.76045,7.153 c -0.37079,-0.0621 -1.08787,-0.30786 -1.59349,-0.54611 -3.45573,-1.62837 -4.27907,-6.57858 -1.57053,-9.44248 1.09939,-1.16243 2.46793,-1.76452 4.01073,-1.76452 3.14034,0 5.40469,2.35935 5.40469,5.63143 0,0.54011 -0.0477,0.73462 -0.19389,0.79072 -0.10664,0.0409 -2.15459,0.0744 -4.551,0.0744 h -4.3571 l 0.0829,0.52095 c 0.20178,1.26757 1.42492,2.60522 2.72883,2.98428 1.40089,0.40725 3.25349,-0.12786 4.08725,-1.18056 0.21172,-0.26731 0.44358,-0.48602 0.51524,-0.48602 0.23737,0 1.19745,0.87062 1.19745,1.08587 0,0.30881 -0.92833,1.16284 -1.79088,1.64755 -1.13442,0.63749 -2.67012,0.90225 -3.97022,0.68449 z m 4.29018,-7.1519 c 0,-0.56719 -0.49106,-1.63464 -0.92878,-2.01896 -0.7688,-0.67502 -1.29091,-0.86618 -2.36575,-0.86618 -1.18136,0 -1.84156,0.24901 -2.66529,1.0053 -0.31563,0.2898 -0.70289,0.8027 -0.86056,1.13978 -0.52406,1.12043 -0.77018,1.0419 3.26566,1.0419 h 3.55472 z m 22.7418,7.14883 c -0.91867,-0.12953 -1.94576,-0.64201 -2.40618,-1.20058 -1.05131,-1.27542 -0.92186,-3.37591 0.27713,-4.4966 1.06903,-0.99922 2.3812,-1.37304 5.00573,-1.42608 l 1.53221,-0.031 -0.026,-0.73085 c -0.0205,-0.57658 -0.0981,-0.83255 -0.36773,-1.21268 -0.51906,-0.73186 -1.00704,-0.93621 -2.23566,-0.93621 -1.1751,0 -1.81401,0.19023 -2.76398,0.82299 l -0.61288,0.40822 -0.51321,-0.56446 c -0.30092,-0.33097 -0.48495,-0.63808 -0.44491,-0.74244 0.0859,-0.22389 0.94275,-0.81839 1.53797,-1.06709 1.34557,-0.56221 3.2212,-0.73329 4.45042,-0.40593 1.07355,0.2859 1.95167,0.98115 2.47779,1.96177 0.17481,0.32586 0.22078,1.01177 0.30497,4.55128 0.0545,2.29218 0.11156,4.3055 0.12678,4.47404 0.0265,0.29377 -0.004,0.30796 -0.73924,0.34296 -0.72873,0.0347 -0.77297,0.0206 -0.88868,-0.28378 -0.067,-0.17616 -0.12178,-0.48217 -0.12178,-0.68004 0,-0.43332 -0.17196,-0.46283 -0.42718,-0.0733 -0.10323,0.15755 -0.44925,0.45545 -0.76893,0.66201 -0.9138,0.59043 -2.10285,0.81019 -3.39664,0.62775 z m 2.36586,-1.76532 c 1.30649,-0.38799 1.99365,-1.40529 2.02496,-2.99787 l 0.0181,-0.91932 -0.66761,-0.0379 c -0.98502,-0.0559 -2.98533,0.29662 -3.75844,0.66236 -0.73787,0.34907 -1.00447,0.66401 -1.10938,1.31051 -0.25913,1.59685 1.47523,2.58123 3.4924,1.9822 z m 10.56408,1.7615 c -1.55139,-0.22142 -2.93338,-1.07435 -3.79302,-2.34094 -0.72098,-1.0623 -0.92864,-1.86637 -0.9253,-3.5829 0.003,-1.39166 0.0249,-1.52237 0.41183,-2.42573 0.70963,-1.65678 1.98727,-2.74775 3.75801,-3.20897 1.87785,-0.48911 3.95424,0.008 5.31724,1.27187 l 0.54188,0.50263 -0.29463,0.31361 c -0.16204,0.17249 -0.47903,0.42758 -0.70442,0.56688 l -0.4098,0.25327 -0.45032,-0.43179 c -0.73,-0.69994 -1.3508,-0.94808 -2.37193,-0.94808 -2.05108,0 -3.39334,1.10258 -3.852,3.16419 -0.24329,1.09352 -0.11789,2.11736 0.38776,3.16584 1.0732,2.22534 4.13388,2.82833 5.78485,1.13967 0.35434,-0.36242 0.41475,-0.38296 0.73548,-0.25011 0.43762,0.18127 1.0106,0.70426 1.0106,0.92244 0,0.27249 -0.91422,1.01192 -1.73863,1.40626 -0.65491,0.31325 -2.06611,0.65865 -2.49026,0.6095 -0.0674,-0.008 -0.48022,-0.0653 -0.91734,-0.12764 z m 11.4647,0.009 c -0.99957,-0.14741 -1.4941,-0.32335 -2.21216,-0.78704 -1.6839,-1.08737 -2.54028,-2.57457 -2.70372,-4.69535 -0.13725,-1.78071 0.57412,-3.6103 1.86424,-4.79471 1.58038,-1.45088 3.91702,-1.86791 5.93191,-1.05868 0.90986,0.36542 2.1058,1.32773 1.99827,1.60791 -0.0401,0.10463 0.003,0.17927 0.10259,0.17927 0.22522,0 0.79101,1.12896 0.95948,1.91453 0.0733,0.34164 0.11672,1.00213 0.0965,1.46776 l -0.0367,0.8466 -4.50468,0.0322 c -5.0606,0.0361 -4.67585,-0.0562 -4.26537,1.02407 0.62282,1.63914 2.02782,2.67677 3.63024,2.68104 1.09343,0.003 2.45132,-0.62764 3.15656,-1.46578 0.17195,-0.20435 0.35189,-0.37154 0.39986,-0.37154 0.18536,0 1.15437,0.88379 1.15437,1.05284 0,0.31576 -0.9823,1.25595 -1.77586,1.69974 -1.1002,0.61527 -2.49053,0.85966 -3.79558,0.6672 z m 4.10053,-7.19781 c 0,-0.55982 -0.34222,-1.40145 -0.74489,-1.8319 -0.65865,-0.70412 -1.43378,-1.00919 -2.5641,-1.00919 -0.85056,0 -1.08789,0.0503 -1.7042,0.36144 -0.85589,0.43205 -1.63713,1.27661 -1.90318,2.05743 -0.10619,0.31165 -0.19307,0.61197 -0.19307,0.66737 0,0.0554 1.59962,0.10074 3.55472,0.10074 h 3.55472 z M 64.064353,121.69433 v -8.47909 l 3.340209,0.0557 c 2.542996,0.0424 3.471859,0.1001 3.891803,0.2417 1.575205,0.53113 2.411259,1.18869 2.924257,2.29991 0.256916,0.55651 0.31083,0.85601 0.30892,1.71607 -0.0035,1.57818 -0.49656,2.51442 -1.749609,3.32223 l -0.538944,0.34745 0.355079,0.13834 c 1.062344,0.41392 1.58249,0.79538 2.047686,1.50175 0.920021,1.39699 1.013307,3.01394 0.260161,4.50951 -0.577916,1.14761 -1.382509,1.82842 -2.829557,2.39421 -0.828289,0.32386 -0.886234,0.32883 -4.424643,0.37973 l -3.585362,0.0516 z m 6.030091,6.62006 c 1.628793,-0.23558 2.709329,-0.97611 3.090101,-2.11776 0.244622,-0.73344 0.244514,-0.98061 -7.36e-4,-1.81212 -0.256713,-0.87017 -1.008336,-1.61535 -1.913967,-1.89756 -0.823927,-0.25675 -4.903029,-0.41013 -5.163278,-0.19414 -0.22512,0.18683 -0.290309,5.70897 -0.07052,5.9738 0.17125,0.20635 2.752082,0.23673 4.058457,0.0478 z m 0.163952,-7.88149 c 1.447757,-0.38071 2.190291,-1.28251 2.189485,-2.65912 -6.13e-4,-1.094 -0.573294,-1.96605 -1.582206,-2.4094 -0.656735,-0.28859 -4.684469,-0.41004 -4.858138,-0.14648 -0.108218,0.16422 -0.118752,4.92763 -0.01155,5.22192 0.07834,0.21505 3.439042,0.2096 4.262408,-0.007 z m 19.867595,9.6214 c -0.03754,-0.0607 -0.0732,-2.55911 -0.07926,-5.55195 l -0.01101,-5.44152 h 0.834812 0.834813 l 0.03642,0.69339 0.03642,0.69339 0.55026,-0.58827 c 0.320403,-0.34254 0.817221,-0.70397 1.189345,-0.86525 0.764046,-0.33114 2.23899,-0.46587 2.656108,-0.24264 0.253995,0.13594 0.271602,0.20609 0.196004,0.78096 -0.04568,0.34739 -0.137604,0.68677 -0.204273,0.75419 -0.06667,0.0674 -0.463174,0.12577 -0.881121,0.12967 -1.338003,0.0125 -2.378357,0.6459 -3.008355,1.83155 l -0.325655,0.61288 -0.06129,3.61601 -0.06129,3.61601 -0.816845,0.036 c -0.449264,0.0198 -0.847555,-0.0137 -0.885091,-0.0744 z m 44.016109,0.0228 c -0.0476,-0.0476 -0.0866,-3.44211 -0.0866,-7.54332 v -7.45673 h -2.69972 -2.69971 l -0.11132,-0.29282 c -0.0612,-0.16105 -0.073,-0.56096 -0.0261,-0.88868 l 0.0852,-0.59586 h 6.43376 6.43374 v 0.85803 0.85804 l -2.72638,0.033 -2.72638,0.033 -0.0316,7.50547 -0.0316,7.50547 -0.86339,0.0355 c -0.47486,0.0195 -0.90235,-0.003 -0.94997,-0.0511 z m 19.46868,-0.0764 c -0.0271,-0.0843 -0.0705,-2.59624 -0.0964,-5.58215 l -0.0471,-5.42892 0.86631,0.0356 0.86632,0.0356 -0.0405,0.56888 c -0.0223,0.31289 0.0111,0.60084 0.0743,0.63989 0.0632,0.0391 0.28072,-0.13533 0.48339,-0.38753 0.69589,-0.86595 2.40205,-1.43125 3.62644,-1.20156 0.52905,0.0993 0.56988,0.20625 0.40232,1.05449 l -0.13318,0.67417 -0.89269,0.0182 c -1.17538,0.024 -2.09376,0.45175 -2.64494,1.23196 -0.6976,0.98747 -0.7263,1.16383 -0.77432,4.75606 -0.0243,1.82026 -0.0432,3.4061 -0.0419,3.52407 0.002,0.18265 -0.11659,0.21451 -0.79824,0.21451 -0.53246,0 -0.81711,-0.0513 -0.84988,-0.15322 z m 8.22875,0.0715 c -0.045,-0.045 -0.0817,-2.55722 -0.0817,-5.58283 v -5.50112 l 0.82739,0.0363 0.82739,0.0362 0.0137,0.5516 c 0.008,0.30337 0.0213,0.60987 0.0306,0.68111 0.009,0.0712 0.3117,-0.15603 0.67201,-0.50502 0.79832,-0.77323 1.72317,-1.1567 2.78969,-1.1567 1.07773,0 1.257,0.12986 1.15713,0.83827 -0.14306,1.01462 -0.10902,0.9825 -1.0217,0.96424 -1.38034,-0.0276 -2.4181,0.58527 -3.0707,1.81349 l -0.32567,0.61288 -0.0317,3.37086 c -0.0175,1.85397 -0.0599,3.49496 -0.0943,3.64665 -0.0567,0.25029 -0.13408,0.27579 -0.8365,0.27579 -0.42568,0 -0.81075,-0.0368 -0.85569,-0.0817 z M 4.4513243,111.93097 c -0.044945,-0.045 -0.081718,-1.85845 -0.081718,-4.03002 0,-3.19053 0.032179,-3.975 0.1676669,-4.08744 0.1198595,-0.0995 1.4217689,-0.12997 4.5659739,-0.10695 l 4.3983069,0.0322 0.0381,0.73546 c 0.02096,0.4045 0.0047,0.91473 -0.0362,1.13384 l -0.0743,0.39837 h -3.23841 c -3.0762696,0 -3.2447633,0.0119 -3.3652993,0.23709 -0.074988,0.14012 -0.1268892,1.21193 -0.1268892,2.62039 0,1.77924 -0.039523,2.41609 -0.1559369,2.51271 -0.085765,0.0712 -0.5673016,0.24341 -1.0700806,0.38273 -1.070119,0.29655 -0.9212869,0.27154 -1.021218,0.17161 z m 26.1496497,-3.07512 c -0.101126,-0.0388 -0.495336,-0.28311 -0.876023,-0.54282 -0.969243,-0.66123 -2.350204,-1.27561 -3.647805,-1.62287 -0.608034,-0.16272 -1.170088,-0.33576 -1.249009,-0.38454 -0.163068,-0.10078 -0.08188,-1.97178 0.09303,-2.14399 0.05641,-0.0555 0.488688,-0.0206 0.960607,0.0776 2.560926,0.53302 4.798592,1.68486 6.620915,3.40812 0.881696,0.83377 0.81734,0.98756 -0.463477,1.10757 -0.487657,0.0457 -0.969388,0.10298 -1.070514,0.12731 -0.101126,0.0243 -0.266604,0.0125 -0.367729,-0.0264 z"
         id="path463" /></g></g></svg>
