<?xml version="1.0" encoding="UTF-8" standalone="no"?>
<!-- Created with Inkscape (http://www.inkscape.org/) -->

<svg
   width="144.655mm"
   height="62.982185mm"
   viewBox="0 0 144.655 62.982185"
   version="1.1"
   id="svg5"
   xml:space="preserve"
   sodipodi:docname="BTBC_AV_Logo.svg"
   inkscape:export-filename="BTBC_AV_Logo.png"
   inkscape:export-xdpi="96"
   inkscape:export-ydpi="96"
   xmlns:inkscape="http://www.inkscape.org/namespaces/inkscape"
   xmlns:sodipodi="http://sodipodi.sourceforge.net/DTD/sodipodi-0.dtd"
   xmlns="http://www.w3.org/2000/svg"
   xmlns:svg="http://www.w3.org/2000/svg"><sodipodi:namedview
     id="namedview7"
     pagecolor="#ffffff"
     bordercolor="#000000"
     borderopacity="0.25"
     inkscape:showpageshadow="2"
     inkscape:pageopacity="0.0"
     inkscape:pagecheckerboard="0"
     inkscape:deskcolor="#d1d1d1"
     inkscape:document-units="mm"
     showgrid="false" /><defs
     id="defs2"><rect
       x="284.31409"
       y="42.120605"
       width="95.941376"
       height="22.230318"
       id="rect555" /></defs><g
     inkscape:label="Layer 1"
     inkscape:groupmode="layer"
     id="layer1"
     transform="translate(-4.319398,-126.62403)"><g
       id="g461"
       transform="translate(2.5214907,31.649472)"><path
         style="fill:#cadda7;stroke-width:0.122576"
         d="m 166.79312,140.86923 c 0.006,-0.14279 0.0349,-0.17184 0.0741,-0.0741 0.0354,0.0885 0.0311,0.19421 -0.01,0.23494 -0.0407,0.0407 -0.0697,-0.0317 -0.0644,-0.16088 z M 14.072502,138.4892 c 0,-0.16854 0.02782,-0.23749 0.06183,-0.15322 0.034,0.0843 0.034,0.22217 0,0.30644 -0.034,0.0843 -0.06183,0.0153 -0.06183,-0.15322 z m 168.287828,-0.92953 c 0.006,-0.1428 0.0349,-0.17184 0.0741,-0.0741 0.0354,0.0885 0.0311,0.19421 -0.01,0.23494 -0.0407,0.0407 -0.0697,-0.0317 -0.0644,-0.16088 z"
         id="path471" /><path
         style="fill:#a5b9c6;stroke-width:0.122576"
         d="m 178.22508,126.04769 c 0,-0.53933 0.022,-0.74472 0.0479,-0.45642 0.0259,0.2883 0.0255,0.72958 -10e-4,0.98061 -0.0263,0.25103 -0.0475,0.0152 -0.0471,-0.52419 z m -0.0227,-2.02251 c 0,-0.16854 0.0278,-0.23749 0.0618,-0.15322 0.034,0.0843 0.034,0.22217 0,0.30644 -0.034,0.0843 -0.0618,0.0153 -0.0618,-0.15322 z m -93.018171,-3.43214 c 0,-0.3708 0.02298,-0.52248 0.05106,-0.33709 0.02809,0.1854 0.02809,0.48878 0,0.67417 -0.02808,0.1854 -0.05106,0.0337 -0.05106,-0.33708 z"
         id="path469" /><path
         style="fill:#89b530;stroke-width:0.122576"
         d="m 18.239002,157.35778 c -0.360756,-0.33646 -0.857191,-0.69582 -1.103188,-0.79858 -0.58048,-0.24248 -1.043281,-0.68769 -1.582334,-1.52217 -0.561413,-0.8691 -0.835345,-1.66217 -0.994969,-2.88055 -0.120129,-0.91693 -0.295004,-5.78503 -0.453513,-12.62474 -0.05709,-2.46365 -0.100139,-2.97653 -0.265117,-3.15883 -0.174469,-0.19278 -0.193537,-0.72465 -0.167008,-4.65854 0.02573,-3.81509 -0.178913,-12.4463 -0.298107,-12.57339 -0.04212,-0.0449 -0.754079,0.11302 -3.244065,0.71965 -0.8427131,0.20531 -1.8080029,0.42619 -2.1450882,0.49086 -0.3370853,0.0647 -0.8886795,0.17528 -1.2257648,0.24581 -0.7890887,0.1651 -1.3629473,0.0649 -1.4459358,-0.25243 -0.045842,-0.17531 -0.1679833,-0.24214 -0.4425241,-0.24214 -0.3491122,0 -0.379205,-0.0329 -0.379205,-0.4144 0,-0.37851 0.055742,-0.44148 0.6435265,-0.72696 0.5815033,-0.28243 1.3325819,-0.54136 2.1757326,-0.75008 0.1685426,-0.0417 0.609818,-0.16305 0.9806118,-0.26961 0.3707939,-0.10656 0.8948083,-0.23644 1.1644766,-0.28863 0.7733954,-0.14966 2.6728774,-0.7384 2.8460524,-0.88212 0.08639,-0.0717 0.157071,-0.20634 0.157071,-0.29921 0,-0.30852 -0.295188,-0.24946 -3.4321411,0.68657 -0.7078792,0.21123 -1.480111,0.42949 -1.7160707,0.48503 -0.2359598,0.0555 -0.6220757,0.20322 -0.8580354,0.32818 -0.4365409,0.23118 -1.0120204,0.46428 -1.6307879,0.66056 -0.2724669,0.0864 -0.3926082,0.0602 -0.579458,-0.12669 -0.3326855,-0.33269 -0.1836784,-0.57864 0.4762754,-0.78616 0.9636205,-0.303 4.3620711,-1.48131 4.4919413,-1.55745 0.067417,-0.0395 0.33156,-0.13924 0.5869842,-0.2216 0.3596822,-0.11598 0.4488112,-0.19889 0.3952442,-0.36766 -0.10276,-0.32377 0.855461,-0.46715 1.177041,-0.17613 0.183915,0.16644 0.261037,0.1761 0.411188,0.0515 0.101648,-0.0844 0.155958,-0.20008 0.120688,-0.25715 -0.03527,-0.0571 0.199766,-0.18831 0.5223,-0.29165 l 0.586426,-0.1879 -0.612883,0.0626 c -1.668371,0.17037 -2.221842,0.25466 -2.390241,0.36404 -0.1011258,0.0657 -0.2114447,0.12488 -0.2451532,0.13157 -0.033709,0.007 -0.1991868,0.0691 -0.3677295,0.13871 -0.4665268,0.1927 -2.4270263,0.83442 -4.4740415,1.46448 -1.011256,0.31126 -1.9039933,0.61755 -1.9838606,0.68065 -0.079867,0.0631 -0.3280848,0.0972 -0.5515942,0.0757 -0.342184,-0.0328 -0.4003227,-0.0826 -0.3680317,-0.3148 0.021092,-0.15169 -0.020278,-0.2758 -0.091932,-0.2758 -0.2039171,0 -0.1528121,-1.01958 0.07432,-1.48273 0.3514706,-0.71669 1.1598422,-1.42459 2.2965905,-2.01115 1.3476952,-0.69541 2.9650888,-1.11737 4.9146855,-1.2822 0.8090047,-0.0684 1.7742947,-0.17393 2.1450887,-0.23453 0.370794,-0.0606 1.15452,-0.17688 1.741613,-0.2584 0.587093,-0.0815 1.129301,-0.22276 1.204906,-0.31386 0.08886,-0.10707 0.176669,-1.45738 0.24833,-3.81858 0.06098,-2.00912 0.140124,-3.79084 0.175883,-3.95938 0.10746,-0.5065 0.557648,-3.55038 0.670773,-4.535334 0.169302,-1.474083 0.490188,-3.172938 0.696897,-3.689554 0.187758,-0.469253 0.202917,-0.478046 0.824146,-0.478046 0.910016,0 2.277984,0.405934 2.547157,0.75585 0.187839,0.244184 0.220718,0.546179 0.224648,2.063409 0.0025,0.977547 0.05335,1.854346 0.11293,1.948441 0.121389,0.191709 0.479009,0.103264 0.556607,-0.137658 0.505533,-1.569532 0.802229,-2.071709 0.802229,-1.357829 0,0.189923 0.137343,0.473735 0.323058,0.667579 l 0.323059,0.337201 -0.144067,1.446861 c -0.07924,0.79578 -0.171848,1.69509 -0.205799,1.99846 -0.0704,0.62908 0.07034,0.93174 0.378322,0.81356 0.17156,-0.0658 0.193799,-0.17336 0.124114,-0.6001 -0.04669,-0.28594 -0.07695,-0.98875 -0.06724,-1.5618 0.02474,-1.460069 0.526143,-2.478045 0.950914,-1.930577 0.258848,0.333618 0.562067,1.552077 0.617697,2.482177 0.03226,0.53933 0.104295,1.03802 0.160081,1.10819 0.0582,0.0732 -0.02959,0.35824 -0.205959,0.66874 -0.257728,0.45374 -0.284101,0.58468 -0.16325,0.81049 0.160432,0.29977 0.120017,1.67393 -0.134085,4.55907 -0.100593,1.14217 -0.112635,1.79489 -0.03455,1.87297 0.07808,0.0781 0.479527,0.077 1.151937,-0.003 1.182378,-0.14072 3.66643,-0.455 5.015821,-0.63459 0.505628,-0.0673 1.608817,-0.19742 2.45153,-0.28917 0.842713,-0.0918 2.099385,-0.23565 2.792602,-0.31978 1.484843,-0.1802 1.587733,-0.13483 1.366773,0.60267 -0.147018,0.4907 -0.164594,0.50296 -0.989974,0.69069 -0.462165,0.10512 -1.500401,0.27677 -2.307193,0.38144 -1.612985,0.20927 -3.652066,0.59456 -3.769825,0.71232 -0.119651,0.11965 0.439782,0.0762 1.497987,-0.11633 0.539337,-0.0981 1.421888,-0.23785 1.961224,-0.31048 0.539337,-0.0726 1.690034,-0.26521 2.557106,-0.42796 0.867072,-0.16276 1.922546,-0.29592 2.3455,-0.29592 0.682084,0 0.791382,0.0341 0.966968,0.30213 0.26061,0.39774 0.250365,0.74866 -0.03004,1.02907 -0.303353,0.30335 -1.622894,0.68532 -3.204136,0.92751 -0.707879,0.10842 -1.56285,0.25154 -1.899935,0.31805 -0.337085,0.0665 -1.164477,0.20454 -1.838647,0.30673 -0.674171,0.10219 -1.7222,0.26997 -2.328953,0.37285 -0.606754,0.10288 -1.406565,0.23822 -1.777359,0.30076 -0.370794,0.0625 -1.060287,0.14759 -1.532206,0.18902 -0.47192,0.0414 -1.023514,0.12277 -1.225765,0.18075 -0.202251,0.058 -0.615947,0.11908 -0.919324,0.13578 -0.303377,0.0167 -0.648123,0.088 -0.766103,0.15842 -0.202391,0.12085 -0.287981,0.44509 -0.153095,0.57997 0.07139,0.0714 1.343697,-0.0863 2.144963,-0.26589 0.501883,-0.11247 1.782577,-0.32438 4.841771,-0.80114 0.606754,-0.0946 2.620072,-0.36643 4.474042,-0.60414 1.853969,-0.23772 3.610415,-0.48968 3.903215,-0.55992 0.292798,-0.0702 0.637545,-0.0943 0.766103,-0.0535 0.533667,0.16938 0.04813,0.91571 -0.595733,0.91571 -0.156541,0 -0.626912,0.078 -1.04527,0.17341 -2.922529,0.6663 -5.346557,1.15943 -7.37978,1.50129 -2.210262,0.37164 -3.802488,0.67275 -6.453484,1.22047 l -1.060119,0.21903 -0.05963,0.8025 c -0.0328,0.44137 -0.147476,1.85052 -0.254844,3.13144 -0.209112,2.49475 -0.380094,5.66673 -0.56493,10.48029 -0.122943,3.20175 -0.341227,5.74985 -0.508502,5.93593 -0.06081,0.0676 -0.202349,0.0228 -0.350121,-0.11093 -0.235412,-0.21304 -0.248018,-0.3687 -0.24742,-3.05538 3.68e-4,-1.557 0.05758,-3.8741 0.127193,-5.14912 0.08739,-1.60078 0.0872,-2.35757 -6.13e-4,-2.4454 -0.268738,-0.26874 -0.43429,0.18834 -0.517648,1.42919 -0.08963,1.33424 -0.251209,2.36216 -0.393701,2.50466 -0.242246,0.24224 -0.326428,-0.37483 -0.252198,-1.84869 0.187765,-3.7281 0.260981,-6.89057 0.162038,-6.99896 -0.05846,-0.0641 -0.109388,-0.0916 -0.11317,-0.0613 -0.04442,0.3564 -0.26212,6.42158 -0.353953,9.86128 -0.0648,2.42701 -0.182131,5.81932 -0.260744,7.53845 -0.153877,3.36503 -0.09588,7.21121 0.17929,11.88992 0.138417,2.35351 0.219407,3.02632 0.44265,3.67729 0.294915,0.85996 0.447722,2.11467 0.319674,2.62485 -0.117286,0.46731 -0.416956,0.38874 -1.159824,-0.3041 z m 2.006842,-31.34073 c 0.151866,-0.36157 0.227217,-4.07567 0.08269,-4.07567 -0.17388,0 -0.416283,0.77285 -0.373726,1.19153 0.01905,0.18737 -0.01022,0.84551 -0.06503,1.46252 -0.0969,1.09077 -0.04198,1.63613 0.164768,1.63613 0.05566,0 0.141746,-0.0965 0.191302,-0.21451 z m 0.22217,-7.19241 c 0.03691,-0.0962 -0.01234,-0.24085 -0.109463,-0.32145 -0.146086,-0.12124 -0.176578,-0.091 -0.176578,0.17491 0,0.34451 0.17556,0.43445 0.286041,0.14654 z m 0.627639,-7.08775 c 0.04534,-0.75844 0.13411,-1.81881 0.197262,-2.35638 0.149319,-1.27104 0.142195,-3.05174 -0.01069,-2.67165 -0.191504,0.4761 -0.660347,6.09053 -0.527353,6.31508 0.173782,0.29342 0.267441,-0.0603 0.340779,-1.28705 z m 4.602261,0.88868 c 0,-0.0674 -0.110318,-0.12258 -0.245153,-0.12258 -0.134834,0 -0.245153,0.0552 -0.245153,0.12258 0,0.0674 0.110319,0.12257 0.245153,0.12257 0.134835,0 0.245153,-0.0552 0.245153,-0.12257 z m 1.532206,-0.3116 c 0.302143,-0.1304 0.321802,-0.16049 0.110224,-0.16871 -0.355791,-0.0138 -1.029547,0.23354 -1.029547,0.37798 0,0.12546 0.304232,0.0562 0.919323,-0.20927 z m -5.600474,-7.00287 c -0.05004,-0.59211 -0.344485,-0.70498 -0.344485,-0.13205 0,0.23034 0.03677,0.45557 0.08172,0.50052 0.194692,0.19469 0.298104,0.0497 0.262767,-0.36847 z m 29.073871,21.10432 V 97.671238 h 0.367729 0.367729 v 28.744182 28.74418 h -0.367729 -0.367729 z"
         id="path467"
         sodipodi:nodetypes="csssssscscssssscscssccsccccsssccccccccsscsssssscsccsssscscssccscssssssssccscssscscccscsscsscccscccccccsccsccsscscccscsccsssssccssssssssssssssssssssssscsssssssccccccccc" /><path
         style="fill:#35687c;stroke-width:0.122576"
         d="m 201.22744,120.71562 c 0,-0.0674 0.0584,-0.12258 0.1298,-0.12258 0.0714,0 0.0957,0.0552 0.0541,0.12258 -0.0417,0.0674 -0.10008,0.12257 -0.12981,0.12257 -0.0297,0 -0.054,-0.0552 -0.054,-0.12257 z"
         id="path465" /><path
         style="fill:#2b6280;stroke-width:0.122576"
         d="m 4.4267364,150.59518 c -0.032419,-0.0851 -0.044746,-6.55326 -0.027393,-14.37364 l 0.031551,-14.21887 1.1332824,-0.0352 1.1332823,-0.0352 0.031194,13.2122 0.031194,13.21221 3.1157292,0.0328 c 2.1010427,0.0221 3.1703897,0.0782 3.2835727,0.17209 0.122675,0.10181 0.158346,0.40637 0.132548,1.13169 l -0.0353,0.99238 -4.3853612,0.0322 c -3.4426222,0.0253 -4.398032,-0.001 -4.4443043,-0.12258 z m 15.5730496,-0.35057 c -0.04413,-0.29681 -0.06256,-0.81546 -0.04096,-1.15254 l 0.03928,-0.61288 1.777359,-0.0812 c 4.733244,-0.21621 8.38735,-1.5948 10.86193,-4.09787 1.025636,-1.03745 1.617012,-1.9637 2.109768,-3.30448 0.526439,-1.43244 0.673076,-2.46408 0.60977,-4.28996 -0.04934,-1.42316 -0.101319,-1.72373 -0.50256,-2.90622 -1.273153,-3.75208 -4.315109,-6.26255 -7.953824,-6.56414 l -1.018772,-0.0844 -0.03601,-0.96159 c -0.03966,-1.05916 0.03913,-1.23928 0.590349,-1.34953 0.200737,-0.0401 0.61017,-0.18469 0.90985,-0.32121 0.29968,-0.13652 0.57778,-0.24822 0.618001,-0.24822 0.04022,0 0.49257,-0.24553 1.005218,-0.54562 2.435939,-1.42594 3.826987,-3.32403 4.277896,-5.83719 0.114037,-0.6356 0.25577,-1.21761 0.31496,-1.29335 0.05919,-0.0757 0.396243,-0.1742 0.749007,-0.21879 0.352763,-0.0446 0.820656,-0.11286 1.039761,-0.15172 l 0.398374,-0.0707 -0.0026,0.71846 c -0.003,0.82351 -0.348697,2.49823 -0.713312,3.45602 -0.468275,1.2301 -1.252259,2.38132 -2.397332,3.52031 -0.613576,0.61032 -1.350019,1.24102 -1.636542,1.40156 -0.286522,0.16054 -0.52095,0.32746 -0.52095,0.37094 0,0.0435 0.288101,0.21259 0.640224,0.3758 0.352125,0.16322 1.063766,0.60967 1.581427,0.99211 2.520888,1.86243 4.07061,4.32782 4.832447,7.68774 0.298222,1.31525 0.195975,4.59997 -0.183546,5.89647 -1.202053,4.1064 -4.040254,7.07328 -8.464046,8.84777 -0.505628,0.20282 -1.746715,0.55808 -2.757971,0.78946 -1.554397,0.35565 -2.16394,0.43259 -3.942776,0.49766 l -2.104128,0.077 -0.08024,-0.53965 z M 4.4513243,111.93097 c -0.044945,-0.045 -0.081718,-1.85845 -0.081718,-4.03002 0,-3.19053 0.032179,-3.975 0.1676669,-4.08744 0.1198595,-0.0995 1.4217689,-0.12997 4.5659739,-0.10695 l 4.3983069,0.0322 0.0381,0.73546 c 0.02096,0.4045 0.0047,0.91473 -0.0362,1.13384 l -0.0743,0.39837 h -3.23841 c -3.0762696,0 -3.2447633,0.0119 -3.3652993,0.23709 -0.074988,0.14012 -0.1268892,1.21193 -0.1268892,2.62039 0,1.77924 -0.039523,2.41609 -0.1559369,2.51271 -0.085765,0.0712 -0.5673016,0.24341 -1.0700806,0.38273 -1.070119,0.29655 -0.9212869,0.27154 -1.021218,0.17161 z m 26.1496497,-3.07512 c -0.101126,-0.0388 -0.495336,-0.28311 -0.876023,-0.54282 -0.969243,-0.66123 -2.350204,-1.27561 -3.647805,-1.62287 -0.608034,-0.16272 -1.170088,-0.33576 -1.249009,-0.38454 -0.163068,-0.10078 -0.08188,-1.97178 0.09303,-2.14399 0.05641,-0.0555 0.488688,-0.0206 0.960607,0.0776 2.560926,0.53302 4.798592,1.68486 6.620915,3.40812 0.881696,0.83377 0.81734,0.98756 -0.463477,1.10757 -0.487657,0.0457 -0.969388,0.10298 -1.070514,0.12731 -0.101126,0.0243 -0.266604,0.0125 -0.367729,-0.0264 z"
         id="path463"
         sodipodi:nodetypes="cscccccccscccccsccssssccscsssscccccssssscsssscccccscsccccscscccccsscccscccc" /><text
         xml:space="preserve"
         transform="matrix(0.26458333,0,0,0.26458333,1.7979073,94.974558)"
         id="text553"
         style="white-space:pre;shape-inside:url(#rect555);fill:#000000" /><path
         style="fill:#2b6280;fill-opacity:1;stroke-width:0.133437"
         d="m 63.496179,150.54528 c 0.03619,-0.0917 4.132763,-10.6149 9.103508,-23.3848 l 9.03772,-23.21801 2.601386,-0.0353 2.601386,-0.0353 9.040404,23.32006 c 4.972217,12.82604 9.040387,23.3651 9.040347,23.42014 -3e-5,0.055 -1.31616,0.10008 -2.92474,0.10008 h -2.924667 l -0.87349,-2.23507 c -0.48042,-1.22929 -1.73791,-4.45679 -2.79442,-7.17223 l -1.92093,-4.93716 -9.347792,-0.0343 -9.34779,-0.0343 -0.659987,1.70222 c -0.362993,0.93622 -1.611308,4.17914 -2.77403,7.20649 l -2.114044,5.50427 h -2.904324 c -2.269587,0 -2.889948,-0.0365 -2.838537,-0.1668 z M 91.710623,131.172 c 0,-0.0321 -1.284565,-3.52977 -2.854589,-7.77269 -2.558693,-6.91474 -3.777147,-10.42728 -4.423974,-12.75336 -0.117607,-0.42293 -0.269393,-0.73463 -0.337301,-0.69266 -0.06791,0.042 -0.123471,0.16188 -0.123471,0.26648 0,0.10459 -0.391787,1.54598 -0.870635,3.20308 -0.590891,2.04482 -1.748512,5.35373 -3.602794,10.29812 -1.502688,4.00687 -2.732159,7.33564 -2.732159,7.39727 0,0.0616 3.362608,0.11206 7.47246,0.11206 4.109855,0 7.472463,-0.0263 7.472463,-0.0583 z"
         id="path550" /><path
         style="fill:#2b6280;fill-opacity:1;stroke-width:0.133437"
         d="m 119.26176,150.54528 c -0.0341,-0.0917 -3.77699,-10.57097 -8.31762,-23.28718 l -8.25571,-23.12039 3.01251,0.0358 3.01251,0.0358 4.90787,13.94415 c 6.2144,17.65623 6.73362,19.19643 7.64713,22.68426 0.91268,3.48467 0.94767,3.59746 1.0349,3.33592 0.0367,-0.11008 0.31763,-1.25097 0.62425,-2.5353 0.68094,-2.85218 2.11732,-7.13598 8.12066,-24.21878 l 4.64243,-13.21025 3.04463,-0.0359 c 2.41577,-0.0285 3.03167,-9.3e-4 2.98192,0.13344 -0.0345,0.0931 -3.77705,10.5724 -8.3168,23.28727 l -8.25409,23.11793 h -2.91133 c -2.20709,0 -2.92632,-0.0403 -2.97326,-0.1668 z"
         id="path552" /></g></g></svg>
